<?xml version="1.0" encoding="utf-8"?>
<!-- Generator: Adobe Illustrator 26.0.2, SVG Export Plug-In . SVG Version: 6.00 Build 0)  -->
<svg version="1.1" id="outline" xmlns="http://www.w3.org/2000/svg" xmlns:xlink="http://www.w3.org/1999/xlink" x="0px" y="0px"
	 viewBox="0 0 430 430" style="enable-background:new 0 0 430 430;" xml:space="preserve">
<style type="text/css">
	.st0{fill:url(#SVGID_1_);}
	.st1{fill:url(#SVGID_00000110456526824231628310000013994187889082105007_);}
	.st2{fill:url(#SVGID_00000029749140290791653970000009719139662377728925_);}
	.st3{fill:url(#SVGID_00000090280009420543088400000013228545529847462572_);}
	.st4{fill:url(#SVGID_00000080204141075867150850000006236122721412597141_);}
	.st5{fill:url(#SVGID_00000061451563461384961570000009372812488334378628_);}
	.st6{fill:url(#SVGID_00000087380002671393229270000008760022831769398940_);}
	.st7{fill:url(#SVGID_00000148662296330150361940000018313522037522281915_);}
	.st8{fill:url(#SVGID_00000125596369714985766030000003693967526504576173_);}
	.st9{fill:url(#SVGID_00000071520042904841369200000012068596981975555969_);}
	.st10{fill:url(#SVGID_00000003103678038341439220000004520274765297109675_);}
	.st11{fill:url(#SVGID_00000132089434060251980010000013216450375596815801_);}
	.st12{fill:url(#SVGID_00000008119743567573001910000007633947545833256368_);}
	.st13{fill:url(#SVGID_00000118388064330624077910000009129781795168048286_);}
	.st14{fill:url(#SVGID_00000143608138400088631190000015947625409208765070_);}
	.st15{fill:url(#SVGID_00000057845633174597740570000015257635098458589313_);}
	.st16{fill:url(#SVGID_00000071556875480260873060000003619500287048403635_);}
	.st17{fill:url(#SVGID_00000067923023883106324800000001226770675596089509_);}
	.st18{fill:url(#SVGID_00000163788326916836193530000014604893107886144647_);}
	.st19{fill:url(#SVGID_00000041986356370026702890000016066716741327192719_);}
	.st20{fill:url(#SVGID_00000007391500691486542560000016635672230306408377_);}
	.st21{fill:url(#SVGID_00000031185931228312926450000011589381153421535677_);}
	.st22{fill:url(#SVGID_00000149372128536837218230000008419367866417977473_);}
	.st23{fill:url(#SVGID_00000135679230314472332720000008652048037831078558_);}
	.st24{fill:url(#SVGID_00000166676511056553993450000017429318237120186789_);}
	.st25{fill:url(#SVGID_00000057845549201057186520000001016689608298195364_);}
	.st26{fill:url(#SVGID_00000057829963489802906610000002371369492868608172_);}
	.st27{fill:url(#SVGID_00000072996373143755738490000004135789303985193874_);}
	.st28{fill:url(#SVGID_00000026144689888645040710000008044298788478031283_);}
	.st29{fill:url(#SVGID_00000050632311584277170880000016630986878016621952_);}
	.st30{fill:url(#SVGID_00000131357593385323072020000014025465164254390192_);}
	.st31{fill:url(#SVGID_00000059307799648208310480000005211419688200275363_);}
	.st32{fill:url(#SVGID_00000049191055255605911450000014728645628471514248_);}
	.st33{fill:url(#SVGID_00000098941818830051591820000003169547600170153126_);}
	.st34{fill:url(#SVGID_00000007422139236113650450000015784563004069696959_);}
	.st35{fill:url(#SVGID_00000022535534962388017400000007391130008445896326_);}
	.st36{fill:url(#SVGID_00000164481272176707920150000004661798751377424517_);}
	.st37{fill:url(#SVGID_00000066476453337055987930000001074875103516504225_);}
	.st38{fill:url(#SVGID_00000085209946068484400260000001287775216550270336_);}
	.st39{fill:url(#SVGID_00000018923123678743600290000008156365945440403847_);}
	.st40{fill:url(#SVGID_00000170280516979076838210000012024975930280506244_);}
	.st41{fill:url(#SVGID_00000003064488939729961390000012081703202617882022_);}
	.st42{fill:url(#SVGID_00000025412782635526472210000014371406486422160032_);}
	.st43{fill:url(#SVGID_00000179642481236581710300000010608836030148009388_);}
	.st44{fill:url(#SVGID_00000063634166805713869560000006727592709639833739_);}
	.st45{fill:url(#SVGID_00000044874515831308695940000001269124201056983680_);}
	.st46{fill:url(#SVGID_00000158749456060703276870000006443273688959985853_);}
	.st47{fill:url(#SVGID_00000101077847275914959370000008551524025916928932_);}
	.st48{fill:url(#SVGID_00000126323399617382182950000006609685835140658563_);}
	.st49{fill:url(#SVGID_00000132806772392967668940000001317475550104055708_);}
	.st50{fill:url(#SVGID_00000180331585462772189280000004283093887634991788_);}
	.st51{fill:url(#SVGID_00000159432996366955887930000015146851153547728303_);}
	.st52{fill:url(#SVGID_00000097496170794349744570000004560076019355660424_);}
	.st53{fill:url(#SVGID_00000095298784459668774010000003662405212289833884_);}
	.st54{fill:url(#SVGID_00000081611894763590512150000004348943110980624815_);}
	.st55{fill:url(#SVGID_00000093139420027390486130000002580117630847466685_);}
	.st56{fill:url(#SVGID_00000054245581249308298450000005245182058935289275_);}
	.st57{fill:url(#SVGID_00000182528911287007002860000010348520288739191743_);}
	.st58{fill:url(#SVGID_00000010999753639880107570000006492983545680313257_);}
	.st59{fill:url(#SVGID_00000018197848404013376040000002950468425797782695_);}
	.st60{fill:url(#SVGID_00000100348041963811450500000011909012955000341179_);}
	.st61{fill:url(#SVGID_00000046300739806840390190000002389134303220066690_);}
	.st62{fill:url(#SVGID_00000028286630821809565500000013841227902627659192_);}
	.st63{fill:url(#SVGID_00000139255456346547884730000002438552231223202972_);}
	.st64{fill:url(#SVGID_00000010296395258414895660000008323406931788193152_);}
	.st65{fill:url(#SVGID_00000003071009595229100510000009740818172059305602_);}
	.st66{fill:url(#SVGID_00000072961142014591293080000005098813411838732963_);}
	.st67{fill:url(#SVGID_00000127764266724203792400000017196129653168660408_);}
	.st68{fill:url(#SVGID_00000124859213702323131480000007223052089635558057_);}
	.st69{fill:url(#SVGID_00000032643091628853685930000002599349952597434041_);}
</style>
<linearGradient id="SVGID_1_" gradientUnits="userSpaceOnUse" x1="138.3821" y1="137.1075" x2="303.2582" y2="301.9836">
	<stop  offset="0" style="stop-color:#cb5eee"/>
	<stop  offset="1" style="stop-color:#4be1ec"/>
</linearGradient>
<path class="st0" d="M231.96,201.34c-1.55-18.08-3.09-35.61-4.49-51.4c30.33-33.35,35.02-57.8,34.63-70.72
	c-0.33-10.87-4.44-20.06-11.28-25.21c-7.93-5.97-17.04-7-25.01-2.82c-10.38,5.45-16.41,18.77-15.75,34.78
	c0.27,6.48,2.19,28.22,4.86,58.32c0.04,0.46,0.08,0.92,0.12,1.38c-6.28,6.61-13.67,13.62-22.35,21.02
	c-15.72,13.4-27.29,30.49-33.44,49.43c-6.04,18.57-6.16,37.5-0.34,53.31c9.77,26.52,35.02,41.95,69.46,42.52
	c0.78,13.01,1.34,24.59,1.58,33.97c0.23,9.05-2.09,15.47-6.9,19.08c-3.06,2.3-7.04,3.44-11.18,3.88c2.24-3.45,3.55-7.55,3.55-11.96
	c0-12.13-9.87-22-22-22s-22,9.87-22,22c0,10.02,6.73,18.49,15.91,21.13c0.01,0,0.03,0.01,0.04,0.02c0.63,0.21,9.6,3.03,20.12,3.03
	c7.6,0,16.02-1.47,22.71-6.47c8.12-6.07,12.07-15.83,11.73-29.01c-0.24-9.49-0.8-21.18-1.59-34.31c13.1-1.78,24.13-7.17,32.28-15.85
	c8.96-9.54,13.89-22.56,13.89-36.66C286.52,231.62,267.43,202.79,231.96,201.34z M231.39,61.82c1.56-0.82,3.08-1.15,4.53-1.15
	c3.02,0,5.71,1.44,7.69,2.93c3.92,2.95,6.29,8.78,6.5,15.99c0.25,8.15-2.3,26.76-24.12,53.66c-2.12-23.99-3.71-42.31-3.94-47.77
	C221.59,74.33,225.25,65.04,231.39,61.82z M170.17,265.28c-10.34-28.07,2.41-65.69,30.3-89.46c5.84-4.98,11.14-9.81,15.95-14.49
	c1.14,12.94,2.35,26.79,3.57,40.98c-20.75,4.67-37.38,24.68-37.38,47.1c0,3.31,2.69,6,6,6s6-2.69,6-6
	c0-16.34,11.63-30.97,26.41-35.02c2.48,29.44,4.89,59.63,6.59,85.54C198.5,299.2,178.16,286.96,170.17,265.28z M263.89,287.24
	c-6.04,6.43-14.33,10.52-24.29,12.04c-1.71-26.04-4.12-56.34-6.61-85.87c27.29,1.88,41.54,23.76,41.54,45.38
	C274.52,269.84,270.75,279.94,263.89,287.24z"/>
</svg>
